<svg xmlns="http://www.w3.org/2000/svg" width="629" height="714" fill="none" viewBox="0 0 629 714"><path stroke="url(#paint0_linear)" stroke-linejoin="round" stroke-width="2" d="M17.7772 560.466V180.04C17.7772 179.307 18.1781 178.633 18.8219 178.283L328.168 10.1024C329.5 9.37787 331.123 10.3426 331.123 11.8595V392.285C331.123 393.018 330.722 393.692 330.078 394.042L20.7325 562.223C19.3998 562.947 17.7772 561.982 17.7772 560.466Z"/><path stroke="url(#paint1_linear)" stroke-linejoin="round" stroke-width="2" d="M313.577 385.795L4.23126 553.971C2.89857 554.696 1.276 553.731 1.276 552.214V171.789C1.276 171.056 1.67685 170.382 2.32072 170.032L311.666 1.85156C312.999 1.12701 314.622 2.09174 314.622 3.60864V384.038C314.622 384.771 314.221 385.445 313.577 385.795Z"/><path stroke="url(#paint2_linear)" stroke-linejoin="round" stroke-width="2" d="M346.58 402.294L37.2338 570.469C35.9011 571.194 34.2786 570.229 34.2786 568.712V188.287C34.2786 187.554 34.6794 186.88 35.3233 186.53L344.669 18.3498C346.002 17.6252 347.624 18.59 347.624 20.1069V400.536C347.624 401.269 347.223 401.943 346.58 402.294Z"/><path stroke="url(#paint3_linear)" stroke-linejoin="round" stroke-width="2" d="M363.081 410.54L53.7302 578.721C52.3975 579.445 50.7749 578.481 50.7749 576.964V196.538C50.7749 195.806 51.1758 195.131 51.8196 194.781L361.17 26.6008C362.503 25.8762 364.126 26.8409 364.126 28.3578V408.783C364.126 409.516 363.725 410.19 363.081 410.54Z"/><path stroke="url(#paint4_linear)" stroke-linejoin="round" stroke-width="2" d="M67.2764 585.216V204.786C67.2764 204.053 67.6772 203.379 68.3211 203.029L377.672 34.8485C379.004 34.124 380.627 35.0887 380.627 36.6056V417.035C380.627 417.768 380.226 418.442 379.582 418.792L70.2316 586.973C68.899 587.697 67.2764 586.732 67.2764 585.216Z"/><path stroke="url(#paint5_linear)" stroke-linejoin="round" stroke-width="2" d="M83.7776 593.462V213.037C83.7776 212.304 84.1784 211.63 84.8223 211.28L394.168 43.0992C395.501 42.3746 397.123 43.3394 397.123 44.8563V425.281C397.123 426.014 396.722 426.689 396.079 427.039L86.7329 595.219C85.4002 595.944 83.7776 594.979 83.7776 593.462Z"/><path stroke="url(#paint6_linear)" stroke-linejoin="round" stroke-width="2" d="M100.279 601.714V221.285C100.279 220.552 100.68 219.878 101.324 219.528L410.67 51.3472C412.002 50.6227 413.625 51.5874 413.625 53.1043V433.534C413.625 434.267 413.224 434.941 412.58 435.291L103.234 603.471C101.902 604.196 100.279 603.231 100.279 601.714Z"/><path stroke="url(#paint7_linear)" stroke-linejoin="round" stroke-width="2" d="M429.081 443.537L119.736 611.718C118.403 612.442 116.781 611.478 116.781 609.961V229.535C116.781 228.803 117.181 228.128 117.825 227.778L427.171 59.5977C428.504 58.8731 430.126 59.8378 430.126 61.3547V441.78C430.126 442.513 429.725 443.187 429.081 443.537Z"/><path stroke="url(#paint8_linear)" stroke-linejoin="round" stroke-width="2" d="M445.582 451.789L136.232 619.969C134.899 620.694 133.277 619.729 133.277 618.212V237.783C133.277 237.05 133.677 236.376 134.321 236.026L443.672 67.8455C445.004 67.121 446.627 68.0858 446.627 69.6027V450.032C446.627 450.765 446.226 451.439 445.582 451.789Z"/><path stroke="url(#paint9_linear)" stroke-linejoin="round" stroke-width="2" d="M149.778 626.461V246.036C149.778 245.303 150.179 244.629 150.823 244.279L460.173 76.0981C461.506 75.3735 463.129 76.3383 463.129 77.8552V458.28C463.129 459.013 462.728 459.687 462.084 460.037L152.733 628.218C151.401 628.942 149.778 627.978 149.778 626.461Z"/><path stroke="url(#paint10_linear)" stroke-linejoin="round" stroke-width="2" d="M478.586 468.288L169.235 636.469C167.902 637.193 166.279 636.229 166.279 634.712V254.282C166.279 253.549 166.68 252.875 167.324 252.525L476.675 84.3493C478.008 83.6248 479.63 84.5895 479.63 86.1064V466.531C479.63 467.264 479.23 467.938 478.586 468.288Z"/><path stroke="url(#paint11_linear)" stroke-linejoin="round" stroke-width="2" d="M182.781 642.96V262.535C182.781 261.802 183.182 261.128 183.826 260.778L493.171 92.5972C494.504 91.8726 496.126 92.8374 496.126 94.3542V474.779C496.126 475.512 495.726 476.186 495.082 476.536L185.736 644.717C184.403 645.441 182.781 644.477 182.781 642.96Z"/><path stroke="url(#paint12_linear)" stroke-linejoin="round" stroke-width="2" d="M511.583 484.787L202.238 652.968C200.905 653.692 199.282 652.728 199.282 651.211V270.781C199.282 270.048 199.683 269.374 200.327 269.024L509.673 100.848C511.005 100.123 512.628 101.088 512.628 102.605V483.03C512.628 483.763 512.227 484.437 511.583 484.787Z"/><path stroke="url(#paint13_linear)" stroke-linejoin="round" stroke-width="2" d="M215.779 659.464V279.033C215.779 278.301 216.179 277.626 216.823 277.276L526.174 109.096C527.506 108.371 529.129 109.336 529.129 110.853V491.283C529.129 492.016 528.728 492.69 528.084 493.04L218.734 661.221C217.401 661.945 215.779 660.981 215.779 659.464Z"/><path stroke="url(#paint14_linear)" stroke-linejoin="round" stroke-width="2" d="M232.28 667.709V287.284C232.28 286.552 232.681 285.877 233.325 285.527L542.675 117.347C544.008 116.622 545.631 117.587 545.631 119.104V499.529C545.631 500.262 545.23 500.936 544.586 501.286L235.235 669.466C233.902 670.191 232.28 669.226 232.28 667.709Z"/><path stroke="url(#paint15_linear)" stroke-linejoin="round" stroke-width="2" d="M561.082 509.538L251.736 677.719C250.404 678.443 248.781 677.479 248.781 675.962V295.532C248.781 294.799 249.182 294.125 249.826 293.775L559.171 125.594C560.504 124.869 562.127 125.834 562.127 127.351V507.781C562.127 508.514 561.726 509.188 561.082 509.538Z"/><path stroke="url(#paint16_linear)" stroke-linejoin="round" stroke-width="2" d="M265.283 684.208V303.783C265.283 303.05 265.683 302.376 266.327 302.026L575.673 133.845C577.006 133.121 578.628 134.086 578.628 135.602V516.028C578.628 516.76 578.228 517.435 577.584 517.785L268.238 685.965C266.905 686.69 265.283 685.725 265.283 684.208Z"/><path stroke="url(#paint17_linear)" stroke-linejoin="round" stroke-width="2" d="M281.783 692.461V312.031C281.783 311.298 282.184 310.624 282.828 310.273L592.174 142.093C593.507 141.368 595.129 142.333 595.129 143.85V524.28C595.129 525.013 594.728 525.687 594.085 526.037L284.739 694.218C283.406 694.942 281.783 693.978 281.783 692.461Z"/><path stroke="url(#paint18_linear)" stroke-linejoin="round" stroke-width="2" d="M298.285 700.706V320.281C298.285 319.549 298.686 318.874 299.33 318.524L608.675 150.344C610.008 149.619 611.631 150.584 611.631 152.101V532.526C611.631 533.259 611.23 533.933 610.586 534.283L301.24 702.463C299.907 703.188 298.285 702.223 298.285 700.706Z"/><path stroke="url(#paint19_linear)" stroke-linejoin="round" stroke-width="2" d="M314.538 710.806V330.381C314.538 329.649 314.939 328.974 315.583 328.624L624.928 160.444C626.261 159.719 627.884 160.684 627.884 162.201V542.626C627.884 543.359 627.483 544.033 626.839 544.383L317.493 712.563C316.16 713.288 314.538 712.323 314.538 710.806Z"/><defs><linearGradient id="paint0_linear" x1="410.617" x2="-22.431" y1="398.165" y2="263.922" gradientUnits="userSpaceOnUse"><stop stop-color="#0071BC"/><stop offset=".349" stop-color="#6F4CBB"/><stop offset=".714" stop-color="#F3901B"/><stop offset="1" stop-color="#EBFF09"/></linearGradient><linearGradient id="paint1_linear" x1="394.115" x2="-38.932" y1="389.914" y2="255.671" gradientUnits="userSpaceOnUse"><stop stop-color="#0071BC"/><stop offset=".349" stop-color="#6F4CBB"/><stop offset=".714" stop-color="#F3901B"/><stop offset="1" stop-color="#EBFF09"/></linearGradient><linearGradient id="paint2_linear" x1="427.118" x2="-5.93" y1="406.412" y2="272.169" gradientUnits="userSpaceOnUse"><stop stop-color="#0071BC"/><stop offset=".349" stop-color="#6F4CBB"/><stop offset=".714" stop-color="#F3901B"/><stop offset="1" stop-color="#EBFF09"/></linearGradient><linearGradient id="paint3_linear" x1="443.621" x2="10.567" y1="414.664" y2="280.416" gradientUnits="userSpaceOnUse"><stop stop-color="#0071BC"/><stop offset=".349" stop-color="#6F4CBB"/><stop offset=".714" stop-color="#F3901B"/><stop offset="1" stop-color="#EBFF09"/></linearGradient><linearGradient id="paint4_linear" x1="460.122" x2="27.068" y1="422.914" y2="288.668" gradientUnits="userSpaceOnUse"><stop stop-color="#0071BC"/><stop offset=".349" stop-color="#6F4CBB"/><stop offset=".714" stop-color="#F3901B"/><stop offset="1" stop-color="#EBFF09"/></linearGradient><linearGradient id="paint5_linear" x1="476.617" x2="43.569" y1="431.162" y2="296.919" gradientUnits="userSpaceOnUse"><stop stop-color="#0071BC"/><stop offset=".349" stop-color="#6F4CBB"/><stop offset=".714" stop-color="#F3901B"/><stop offset="1" stop-color="#EBFF09"/></linearGradient><linearGradient id="paint6_linear" x1="493.119" x2="60.07" y1="439.413" y2="305.17" gradientUnits="userSpaceOnUse"><stop stop-color="#0071BC"/><stop offset=".349" stop-color="#6F4CBB"/><stop offset=".714" stop-color="#F3901B"/><stop offset="1" stop-color="#EBFF09"/></linearGradient><linearGradient id="paint7_linear" x1="509.62" x2="76.572" y1="447.661" y2="313.417" gradientUnits="userSpaceOnUse"><stop stop-color="#0071BC"/><stop offset=".349" stop-color="#6F4CBB"/><stop offset=".714" stop-color="#F3901B"/><stop offset="1" stop-color="#EBFF09"/></linearGradient><linearGradient id="paint8_linear" x1="526.122" x2="93.068" y1="455.911" y2="321.665" gradientUnits="userSpaceOnUse"><stop stop-color="#0071BC"/><stop offset=".349" stop-color="#6F4CBB"/><stop offset=".714" stop-color="#F3901B"/><stop offset="1" stop-color="#EBFF09"/></linearGradient><linearGradient id="paint9_linear" x1="542.624" x2="109.57" y1="464.161" y2="329.913" gradientUnits="userSpaceOnUse"><stop stop-color="#0071BC"/><stop offset=".349" stop-color="#6F4CBB"/><stop offset=".714" stop-color="#F3901B"/><stop offset="1" stop-color="#EBFF09"/></linearGradient><linearGradient id="paint10_linear" x1="559.126" x2="126.072" y1="472.412" y2="338.164" gradientUnits="userSpaceOnUse"><stop stop-color="#0071BC"/><stop offset=".349" stop-color="#6F4CBB"/><stop offset=".714" stop-color="#F3901B"/><stop offset="1" stop-color="#EBFF09"/></linearGradient><linearGradient id="paint11_linear" x1="575.62" x2="142.573" y1="480.66" y2="346.416" gradientUnits="userSpaceOnUse"><stop stop-color="#0071BC"/><stop offset=".349" stop-color="#6F4CBB"/><stop offset=".714" stop-color="#F3901B"/><stop offset="1" stop-color="#EBFF09"/></linearGradient><linearGradient id="paint12_linear" x1="592.122" x2="159.074" y1="488.911" y2="354.667" gradientUnits="userSpaceOnUse"><stop stop-color="#0071BC"/><stop offset=".349" stop-color="#6F4CBB"/><stop offset=".714" stop-color="#F3901B"/><stop offset="1" stop-color="#EBFF09"/></linearGradient><linearGradient id="paint13_linear" x1="608.624" x2="175.57" y1="497.162" y2="362.916" gradientUnits="userSpaceOnUse"><stop stop-color="#0071BC"/><stop offset=".349" stop-color="#6F4CBB"/><stop offset=".714" stop-color="#F3901B"/><stop offset="1" stop-color="#EBFF09"/></linearGradient><linearGradient id="paint14_linear" x1="625.126" x2="192.072" y1="505.409" y2="371.162" gradientUnits="userSpaceOnUse"><stop stop-color="#0071BC"/><stop offset=".349" stop-color="#6F4CBB"/><stop offset=".714" stop-color="#F3901B"/><stop offset="1" stop-color="#EBFF09"/></linearGradient><linearGradient id="paint15_linear" x1="641.621" x2="208.572" y1="513.66" y2="379.418" gradientUnits="userSpaceOnUse"><stop stop-color="#0071BC"/><stop offset=".349" stop-color="#6F4CBB"/><stop offset=".714" stop-color="#F3901B"/><stop offset="1" stop-color="#EBFF09"/></linearGradient><linearGradient id="paint16_linear" x1="658.122" x2="225.074" y1="521.908" y2="387.665" gradientUnits="userSpaceOnUse"><stop stop-color="#0071BC"/><stop offset=".349" stop-color="#6F4CBB"/><stop offset=".714" stop-color="#F3901B"/><stop offset="1" stop-color="#EBFF09"/></linearGradient><linearGradient id="paint17_linear" x1="674.623" x2="241.574" y1="530.159" y2="395.917" gradientUnits="userSpaceOnUse"><stop stop-color="#0071BC"/><stop offset=".349" stop-color="#6F4CBB"/><stop offset=".714" stop-color="#F3901B"/><stop offset="1" stop-color="#EBFF09"/></linearGradient><linearGradient id="paint18_linear" x1="691.125" x2="258.076" y1="538.406" y2="404.163" gradientUnits="userSpaceOnUse"><stop stop-color="#0071BC"/><stop offset=".349" stop-color="#6F4CBB"/><stop offset=".714" stop-color="#F3901B"/><stop offset="1" stop-color="#EBFF09"/></linearGradient><linearGradient id="paint19_linear" x1="707.378" x2="274.33" y1="548.506" y2="414.263" gradientUnits="userSpaceOnUse"><stop stop-color="#0071BC"/><stop offset=".349" stop-color="#6F4CBB"/><stop offset=".714" stop-color="#F3901B"/><stop offset="1" stop-color="#EBFF09"/></linearGradient></defs></svg>