<?xml version="1.0" standalone="no"?>
<!DOCTYPE svg PUBLIC "-//W3C//DTD SVG 20010904//EN"
 "http://www.w3.org/TR/2001/REC-SVG-20010904/DTD/svg10.dtd">
<svg version="1.0" xmlns="http://www.w3.org/2000/svg"
 width="400.000000pt" height="342.000000pt" viewBox="0 0 400.000000 342.000000"
 preserveAspectRatio="xMidYMid meet">

<g transform="translate(0.000000,342.000000) scale(0.100000,-0.100000)"
fill="#ddd" stroke="none">
<path d="M1053 3119 l-133 -101 0 -154 0 -153 123 -93 c67 -52 128 -97 134
-102 8 -4 64 32 148 95 l135 103 0 150 0 151 -131 100 c-73 55 -135 101 -138
102 -3 2 -66 -43 -138 -98z m257 -9 c66 -50 120 -94 120 -99 0 -4 -54 -49
-121 -100 l-121 -92 -124 93 c-68 51 -122 96 -121 100 2 6 237 188 244 188 2
0 58 -41 123 -90z m129 -257 l0 -138 -110 -83 c-61 -46 -117 -86 -125 -89 -12
-5 -14 14 -12 128 l3 133 120 93 c66 51 121 93 123 93 1 0 2 -62 1 -137z"/>
<path d="M1985 3186 c-100 -47 -142 -122 -154 -274 -9 -110 -23 -144 -87 -214
-61 -65 -64 -82 -33 -190 12 -44 11 -49 -18 -110 -42 -85 -49 -137 -27 -183
27 -58 85 -75 138 -40 21 14 27 15 30 4 12 -33 36 -288 42 -441 6 -154 12
-185 29 -158 12 19 21 9 49 -56 27 -61 28 -67 12 -76 -76 -43 -217 -177 -361
-344 -62 -72 -133 -147 -157 -166 -59 -48 -127 -92 -133 -86 -8 8 -35 169 -35
211 0 32 8 45 60 96 53 53 60 64 60 99 0 73 -47 78 -131 11 -22 -17 -62 -37
-90 -44 -69 -19 -120 -54 -158 -111 -36 -55 -54 -111 -49 -157 4 -46 32 -47
75 0 l36 38 -6 -66 c-11 -119 -36 -166 -159 -296 -129 -136 -162 -194 -163
-288 0 -33 3 -75 7 -92 l8 -33 -162 0 -161 0 23 25 c27 28 17 34 -13 7 -20
-17 -20 -16 -14 23 4 22 10 55 13 74 5 22 3 32 -3 28 -5 -3 -15 -38 -22 -78
l-13 -71 -30 37 c-38 46 -49 38 -13 -9 l27 -36 -106 0 c-64 0 -106 -4 -106
-10 0 -7 612 -10 1815 -10 1203 0 1815 3 1815 10 0 7 -161 10 -464 10 l-465 0
26 45 c13 25 21 45 16 45 -5 0 -17 -15 -26 -32 l-16 -33 0 63 c-1 34 -5 62
-11 62 -6 0 -10 -29 -10 -67 l0 -68 -26 33 c-14 17 -30 32 -36 32 -5 0 5 -18
22 -40 l32 -40 -190 0 -190 0 -6 25 c-9 36 -38 50 -154 76 -101 22 -103 23
-97 48 2 14 27 163 55 330 l50 303 0 384 c0 316 2 384 14 391 11 6 12 19 5 58
-4 28 -11 116 -15 198 l-7 147 32 0 c17 0 48 -7 68 -15 19 -8 43 -15 53 -15
20 0 110 66 110 82 0 6 -20 -6 -45 -27 -39 -31 -51 -36 -78 -31 -18 4 -56 9
-85 13 l-53 6 3 36 c2 28 7 35 20 33 10 -1 35 6 57 18 48 24 63 25 101 5 18
-9 30 -11 30 -5 0 6 -15 18 -34 27 -33 15 -37 15 -85 -5 -76 -33 -91 -30 -91
18 0 54 -13 77 -115 200 -109 132 -117 147 -105 192 9 30 14 35 40 35 77 0
128 81 140 220 9 106 4 132 -38 177 -64 68 -175 85 -267 42z m291 -228 c-10
-87 -26 -130 -62 -166 -32 -32 -38 -34 -77 -29 -24 3 -51 9 -60 13 -23 8 -23
-19 0 -57 16 -26 16 -31 3 -39 -19 -12 -97 -13 -104 -1 -3 5 1 22 9 37 8 16
15 38 16 49 1 42 26 90 55 105 22 13 30 25 32 52 4 46 26 67 53 50 16 -10 27
-8 67 12 71 37 76 35 68 -26z m-226 -304 c35 5 41 3 61 -26 12 -18 52 -69 89
-113 125 -151 113 -114 116 -362 1 -120 7 -249 13 -288 5 -38 9 -70 7 -72 -1
-1 -42 -14 -92 -28 -49 -15 -93 -30 -98 -36 -15 -14 5 -11 69 11 105 36 95 75
95 -367 l-1 -388 -52 -320 -53 -320 -68 -3 -68 -3 6 38 c3 21 8 166 11 323 6
270 -2 436 -31 658 l-5 42 44 0 c49 0 97 29 97 59 0 9 -10 35 -21 56 -12 22
-25 58 -29 80 -4 22 -22 108 -39 190 -17 83 -39 221 -49 308 -9 86 -21 157
-25 157 -16 0 21 -293 60 -480 37 -176 37 -174 -15 -181 -33 -4 -45 -2 -51 10
-15 29 -52 204 -58 273 -3 38 -10 71 -16 75 -22 13 14 -212 54 -339 17 -54 19
-75 12 -105 l-10 -38 -33 68 c-30 63 -31 69 -16 86 28 30 18 35 -18 7 -19 -14
-37 -26 -39 -26 -2 0 -7 82 -10 183 -3 100 -13 233 -22 296 -16 113 -16 116 6
183 22 70 23 119 3 275 -6 53 -6 53 36 92 39 35 46 38 72 29 16 -6 47 -8 68
-4z m95 -1124 c14 -27 25 -58 25 -68 0 -28 -27 -47 -70 -47 -48 0 -70 19 -70
60 0 61 11 94 34 98 50 10 56 7 81 -43z m-127 -122 c15 -26 23 -74 37 -216
l17 -183 -180 -222 c-99 -122 -185 -221 -190 -220 -9 2 -102 -98 -102 -111 0
-2 61 -57 136 -120 l136 -116 -276 0 c-316 0 -299 -6 -271 97 26 96 29 270 7
401 l-18 112 50 29 c72 40 143 107 261 245 56 67 131 148 166 182 65 61 184
154 199 154 5 0 17 -15 28 -32z m-662 -166 l39 -8 -62 -60 c-34 -33 -64 -71
-68 -85 -3 -14 1 -69 9 -122 9 -53 16 -103 16 -111 0 -21 -61 -36 -144 -36
l-68 0 7 33 c3 17 8 62 10 100 3 37 9 76 15 86 12 24 13 31 1 31 -5 0 -13 -10
-16 -21 -8 -26 -83 -109 -98 -109 -14 0 -3 89 17 131 31 66 122 139 174 139
10 0 38 13 62 29 27 17 49 25 56 20 6 -5 28 -12 50 -17z m716 -404 l-5 -142
-46 -42 c-25 -22 -81 -71 -123 -108 l-78 -68 -50 37 -50 36 132 162 c72 89
149 185 172 214 23 29 44 52 47 52 3 1 3 -63 1 -141z m-760 -90 c7 -42 13
-140 13 -228 0 -133 -4 -165 -23 -227 l-23 -73 -48 0 c-59 0 -69 16 -42 68 43
84 77 271 52 286 -8 5 -11 -11 -11 -51 0 -76 -22 -161 -63 -237 -31 -60 -33
-61 -78 -64 -57 -4 -67 12 -35 59 44 66 81 208 58 223 -5 3 -12 -20 -15 -54
-6 -66 -40 -148 -81 -198 l-28 -32 -99 0 c-117 0 -114 -3 -114 115 0 108 23
152 146 280 54 56 109 121 123 146 l25 44 68 -3 c37 -1 82 2 98 7 60 19 62 17
77 -61z m751 -240 c-3 -90 -9 -167 -14 -173 -5 -5 -9 -33 -9 -62 0 -52 -1 -53
-29 -53 -50 0 -105 62 -141 159 -17 46 -29 88 -28 92 3 8 218 199 224 199 1 0
0 -73 -3 -162z"/>
<path d="M1156 1173 c-11 -11 -6 -23 9 -23 8 0 15 4 15 9 0 13 -16 22 -24 14z"/>
<path d="M750 2855 c-97 -62 -186 -195 -211 -314 -22 -108 8 -361 44 -361 5 0
6 8 2 18 -60 144 -56 317 11 458 27 57 120 162 174 196 14 9 23 18 20 21 -3 2
-21 -5 -40 -18z"/>
<path d="M3567 2783 c-31 -42 -54 -79 -51 -82 6 -6 24 16 81 97 57 82 33 70
-30 -15z"/>
<path d="M2699 2831 c-67 -26 -131 -73 -215 -158 -110 -112 -90 -111 26 1 151
146 250 186 365 148 72 -25 85 -20 24 8 -55 25 -138 25 -200 1z"/>
<path d="M3048 2714 l-138 -105 0 -148 0 -149 135 -101 c74 -55 138 -101 141
-101 4 0 67 46 140 101 l134 102 0 148 0 148 -127 97 c-71 54 -132 101 -138
105 -5 4 -72 -40 -147 -97z m128 -318 c3 -7 3 -69 2 -138 l-3 -127 -122 92
-122 92 0 138 -1 138 121 -91 c66 -51 122 -97 125 -104z m264 57 l-1 -138 -86
-65 c-47 -36 -103 -78 -125 -94 l-39 -28 3 138 3 138 120 92 c66 51 121 93
123 94 1 0 2 -62 2 -137z"/>
<path d="M3725 2695 c-5 -2 -43 -14 -82 -25 -40 -12 -73 -26 -73 -30 0 -8 188
44 198 55 6 6 -28 5 -43 0z"/>
<path d="M3560 2560 c0 -11 160 -72 174 -66 6 2 -2 9 -19 16 -102 41 -155 58
-155 50z"/>
<path d="M2605 2298 c-60 -44 -117 -83 -125 -88 -8 -5 -12 -11 -8 -15 7 -7
257 165 258 178 0 14 -17 4 -125 -75z"/>
<path d="M430 2116 c0 -14 81 -178 86 -173 7 7 -68 177 -78 177 -5 0 -8 -2 -8
-4z"/>
<path d="M672 1957 l-132 -102 2 -150 3 -149 134 -103 c104 -80 137 -100 150
-93 9 5 70 51 136 102 l120 94 3 149 2 150 -135 103 c-74 56 -138 102 -142
101 -5 0 -68 -46 -141 -102z m269 -8 c65 -50 119 -94 119 -97 -1 -9 -235 -185
-245 -185 -11 0 -244 177 -245 185 0 8 231 186 243 187 5 1 62 -40 128 -90z
m-248 -213 l117 -90 0 -133 c0 -73 -3 -133 -6 -133 -3 0 -59 41 -125 91 l-119
91 0 135 c0 74 4 133 8 131 4 -1 60 -43 125 -92z"/>
<path d="M270 1993 c0 -10 180 -106 186 -100 3 3 -25 22 -63 42 -37 21 -78 44
-90 51 -25 16 -33 17 -33 7z"/>
<path d="M1675 1869 c-109 -59 -250 -107 -345 -115 -38 -4 -70 -11 -70 -16 0
-14 115 2 210 29 88 24 279 113 300 138 19 23 1 17 -95 -36z"/>
<path d="M323 1807 c-35 -5 -63 -14 -63 -19 0 -5 12 -7 28 -4 15 3 56 10 91
15 35 6 66 13 69 16 8 7 -53 4 -125 -8z"/>
<path d="M2650 1280 l0 -300 525 0 525 0 0 300 0 300 -525 0 -525 0 0 -300z
m200 240 l0 -50 -95 0 -95 0 0 50 0 50 95 0 95 0 0 -50z m210 -6 l0 -56 -31 6
c-17 3 -60 6 -95 6 l-64 0 0 50 0 50 95 0 95 0 0 -56z m210 7 l0 -50 -95 -3
-95 -3 0 53 0 52 95 0 95 0 0 -49z m205 -4 l0 -49 -95 0 -95 0 -3 37 c-6 64
-3 66 100 63 l93 -3 0 -48z m205 3 l0 -50 -85 0 c-47 0 -88 -1 -92 -2 -5 -2
-9 21 -11 50 l-3 52 95 0 96 0 0 -50z m-830 -120 l0 -50 -95 0 -95 0 0 50 0
50 95 0 95 0 0 -50z m420 0 l0 -50 -95 0 -95 0 0 50 0 50 95 0 95 0 0 -50z
m210 0 l0 -50 -100 0 -100 0 0 50 0 50 100 0 100 0 0 -50z m200 0 l0 -50 -95
0 -95 0 0 50 0 50 95 0 95 0 0 -50z m-830 -120 l0 -50 -95 0 -95 0 0 50 0 50
95 0 95 0 0 -50z m210 0 l0 -50 -95 0 -95 0 0 50 0 50 95 0 95 0 0 -50z m210
0 l0 -50 -95 0 -95 0 0 50 0 50 95 0 95 0 0 -50z m410 0 l0 -50 -95 0 -95 0 0
50 0 50 95 0 95 0 0 -50z m-205 -117 l0 -48 -95 0 -95 0 -3 39 c-5 60 -4 61
99 59 l94 -1 0 -49z m-625 -3 l0 -50 -95 0 -95 0 0 50 0 50 95 0 95 0 0 -50z
m210 0 l0 -50 -95 0 -95 0 0 50 0 50 95 0 95 0 0 -50z m210 0 l0 -50 -95 0
-95 0 0 50 0 50 95 0 95 0 0 -50z m410 0 l0 -50 -95 0 -95 0 0 50 0 50 95 0
95 0 0 -50z m-620 -110 l0 -50 -95 0 -95 0 0 50 0 50 95 0 95 0 0 -50z m210 0
l0 -50 -95 0 -95 0 0 50 0 50 95 0 95 0 0 -50z m208 -2 l3 -48 -90 0 c-50 0
-94 -1 -98 -2 -10 -4 -16 69 -9 88 5 12 25 14 98 12 l93 -3 3 -47z m202 2 l0
-50 -95 0 -95 0 0 50 0 50 95 0 95 0 0 -50z"/>
<path d="M2650 755 l0 -115 525 0 526 0 -3 113 -3 112 -522 3 -523 2 0 -115z
m190 -5 c0 -27 -4 -50 -10 -50 -5 0 -10 15 -10 34 0 19 -6 37 -12 39 -10 4 -9
8 2 16 26 18 30 13 30 -39z m116 24 c10 -38 -11 -76 -39 -72 -17 2 -23 11 -25
36 -5 47 3 62 32 62 19 0 27 -7 32 -26z m84 -24 c0 -27 -4 -50 -10 -50 -5 0
-10 16 -10 35 0 27 -4 35 -17 35 -16 1 -16 2 1 15 31 23 36 18 36 -35z m110
25 c14 -37 -4 -77 -33 -73 -17 2 -23 11 -25 36 -4 45 3 62 28 62 13 0 24 -10
30 -25z m80 -26 c0 -31 -4 -48 -10 -44 -5 3 -10 19 -10 35 0 15 -6 31 -12 33
-10 4 -9 8 2 16 26 18 30 13 30 -40z m115 1 c0 -39 -3 -45 -22 -48 -32 -5 -51
37 -35 74 9 18 19 24 35 22 19 -3 22 -9 22 -48z m85 0 c0 -27 -4 -50 -10 -50
-5 0 -10 15 -10 34 0 19 -6 37 -12 39 -10 4 -9 8 2 16 26 18 30 13 30 -39z
m118 21 c6 -38 -7 -71 -26 -71 -36 0 -53 41 -36 85 10 26 58 16 62 -14z"/>
<path d="M2917 784 c-4 -4 -7 -20 -7 -36 0 -35 23 -34 28 1 4 25 -10 46 -21
35z"/>
<path d="M3110 755 c0 -19 4 -35 9 -35 12 0 19 29 13 53 -7 30 -22 18 -22 -18z"/>
<path d="M3304 766 c-6 -26 1 -46 17 -46 12 0 12 57 -1 65 -5 3 -12 -5 -16
-19z"/>
<path d="M3506 783 c-13 -13 -6 -63 9 -63 10 0 15 10 15 29 0 30 -12 46 -24
34z"/>
<path d="M296 825 c14 -19 29 -35 32 -35 4 0 16 12 28 27 l21 27 26 -29 26
-30 23 28 23 28 24 -25 25 -26 27 26 26 25 23 -28 22 -28 25 30 26 29 23 -29
c13 -16 26 -26 29 -23 4 3 -7 21 -24 40 l-31 33 -21 -28 -22 -28 -28 27 -28
27 -24 -28 -23 -28 -22 28 -22 28 -29 -27 -28 -27 -22 28 -21 28 -26 -29 -26
-30 -20 27 c-11 15 -24 27 -29 27 -6 0 2 -16 17 -35z"/>
<path d="M290 710 c31 -43 41 -46 64 -17 l22 27 27 -28 27 -27 23 29 23 29 21
-27 c26 -32 30 -32 56 0 l21 27 23 -29 23 -29 27 27 27 28 22 -28 c12 -15 25
-24 28 -21 3 3 -7 21 -23 40 l-29 34 -22 -28 -23 -28 -26 25 -27 26 -24 -25
-24 -25 -27 26 -26 25 -23 -28 -22 -28 -24 30 -25 30 -25 -30 -25 -30 -22 28
c-30 36 -44 35 -17 -3z"/>
</g>
</svg>
