<?xml version="1.0" standalone="no"?>
<!DOCTYPE svg PUBLIC "-//W3C//DTD SVG 20010904//EN"
 "http://www.w3.org/TR/2001/REC-SVG-20010904/DTD/svg10.dtd">
<svg version="1.0" xmlns="http://www.w3.org/2000/svg"
 width="400.000000pt" height="293.000000pt" viewBox="0 0 400.000000 293.000000"
 preserveAspectRatio="xMidYMid meet">

<g transform="translate(0.000000,293.000000) scale(0.100000,-0.100000)"
fill="#000000" stroke="none">
<path d="M2380 2367 c-3 -3 -46 -17 -95 -32 -56 -15 -97 -33 -107 -46 -26 -31
-23 -75 7 -105 22 -22 25 -33 25 -102 0 -93 21 -137 72 -150 32 -8 33 -11 41
-73 12 -104 5 -130 -54 -201 -29 -34 -81 -106 -115 -158 -57 -87 -68 -98 -132
-132 -38 -21 -77 -38 -87 -38 -9 0 -42 15 -73 34 -32 19 -103 59 -159 90 -56
31 -116 68 -133 83 -17 14 -53 69 -80 122 -58 115 -103 169 -125 151 -13 -11
-13 -16 4 -44 10 -17 24 -65 30 -106 7 -41 20 -87 29 -102 10 -15 54 -54 97
-86 44 -32 151 -118 239 -190 87 -73 166 -132 176 -132 9 0 66 20 125 45 60
25 114 44 120 41 17 -6 79 -236 63 -236 -2 0 -42 16 -88 36 -103 43 -251 84
-305 84 -66 0 -126 -37 -155 -95 -25 -49 -25 -54 -28 -330 -2 -252 -5 -286
-23 -336 l-20 -56 -97 -40 c-75 -30 -100 -46 -110 -67 l-13 -27 -107 3 -107 3
-3 257 -2 257 44 73 c25 40 41 77 37 81 -4 4 -66 6 -137 5 l-129 -3 -44 -72
-44 -73 -156 0 -156 1 -43 74 -42 75 -130 0 c-71 0 -131 -4 -134 -8 -3 -5 15
-43 40 -85 l44 -77 -2 -252 -3 -253 -80 -6 c-44 -3 741 -5 1745 -5 1004 -1
1798 2 1765 5 l-60 6 -5 385 -5 385 -125 2 -125 1 -3 45 -3 45 84 41 c99 47
147 95 147 145 0 101 -111 53 -186 -80 -20 -35 -38 -64 -40 -64 -2 0 -4 45 -4
99 l0 99 48 16 c127 43 220 154 170 204 -35 35 -109 -10 -158 -97 -62 -109
-59 -111 -60 47 0 112 3 142 13 142 28 0 137 62 162 92 20 23 25 40 23 67 -4
43 -27 52 -73 26 -27 -14 -47 -40 -112 -141 -10 -16 -12 -1 -14 81 -3 95 -3
93 -9 -45 l-5 -145 -25 48 c-27 55 -91 117 -118 117 -49 0 -55 -54 -13 -103
27 -30 125 -87 150 -87 7 0 11 -34 11 -92 l-1 -93 -31 57 c-54 101 -126 157
-167 131 -22 -14 -25 -56 -7 -92 19 -35 90 -87 155 -112 l46 -17 3 -98 2 -99
-35 61 c-76 133 -185 178 -185 76 0 -48 63 -108 153 -147 l67 -29 0 -48 0 -47
-122 -3 -123 -3 -5 -385 -5 -385 -114 -3 c-130 -3 -129 -3 -252 100 -35 30
-90 75 -122 101 l-57 47 39 19 c51 26 108 94 129 153 9 27 24 51 34 54 9 3 29
19 44 37 37 44 30 82 -49 262 -81 184 -115 290 -137 420 l-17 100 55 5 c70 7
112 48 112 111 0 54 -21 92 -96 169 -88 92 -97 117 -101 279 -1 91 -7 149 -19
183 -18 55 -62 111 -105 133 -29 15 -130 31 -139 22z m-17 -219 c0 -18 -2 -54
-4 -80 -2 -28 2 -57 11 -73 13 -25 13 -28 -5 -41 -23 -17 -62 -18 -95 -1 -32
16 -49 65 -49 144 -1 58 1 63 27 77 15 8 36 24 46 35 l20 22 25 -25 c16 -17
24 -36 24 -58z m82 -257 c3 -20 13 -51 21 -70 17 -38 17 -39 -51 -71 -69 -33
-75 -30 -75 48 0 65 2 71 38 109 42 46 58 42 67 -16z m-1033 -125 c15 -19 45
-72 68 -119 48 -102 79 -131 217 -206 54 -30 129 -72 167 -94 l68 -41 121 63
c94 49 122 59 129 49 16 -23 58 -112 58 -124 0 -13 -275 -129 -301 -127 -9 1
-95 66 -190 145 -96 79 -202 163 -236 187 -70 49 -87 78 -103 176 -6 39 -18
80 -26 92 -30 46 -9 45 28 -1z m1148 -90 c0 -51 37 -141 68 -168 23 -20 29
-38 45 -133 24 -137 67 -271 146 -447 70 -155 78 -203 43 -241 -50 -53 -173
-62 -297 -22 -43 13 -114 30 -159 36 -47 7 -88 19 -99 28 -20 19 -37 108 -37
198 0 72 -20 185 -48 266 l-19 59 60 26 c33 14 55 28 49 30 -6 2 -20 -1 -31
-7 -17 -10 -23 -4 -52 57 -18 37 -35 70 -37 74 -2 4 20 19 48 33 29 15 49 29
46 32 -3 3 -42 -14 -87 -37 -45 -23 -78 -36 -74 -29 31 52 113 167 154 217 39
47 58 62 93 70 24 7 61 23 83 37 l40 25 33 -35 c23 -25 32 -44 32 -69z m-599
-590 c118 -30 256 -83 280 -107 15 -15 19 -34 19 -101 1 -46 7 -100 14 -121
l14 -37 -43 -26 -43 -25 -79 40 c-43 21 -117 64 -165 94 l-87 55 -5 -31 c-3
-18 -7 -91 -10 -163 -3 -72 -9 -152 -12 -177 l-7 -47 -80 0 -80 0 6 258 c3
145 10 273 17 294 15 51 47 86 95 103 53 19 58 19 166 -9z m1727 -263 l-3
-108 -247 -3 -248 -2 0 110 0 110 250 0 251 0 -3 -107z m-3135 -55 l36 -63
-121 -3 c-91 -2 -124 1 -130 10 -4 7 -22 37 -39 66 l-31 52 124 0 124 0 37
-62z m669 0 l-39 -63 -121 -3 c-67 -1 -122 0 -122 4 0 3 16 33 36 65 l35 59
125 0 124 0 -38 -62z m747 12 c44 -28 110 -65 146 -82 36 -18 65 -35 65 -38 0
-3 -38 -25 -83 -50 -45 -25 -117 -69 -160 -97 -43 -29 -79 -53 -81 -53 -1 0 1
28 5 61 4 34 10 117 14 185 4 68 9 124 10 124 2 0 40 -23 84 -50z m429 -91
c39 -5 100 -19 135 -31 38 -12 102 -23 165 -27 l103 -6 -26 -52 c-36 -71 -88
-115 -181 -151 -83 -32 -211 -62 -264 -62 -16 0 -30 -4 -30 -10 0 -16 133 7
268 46 l23 7 -3 -112 c-2 -61 -6 -111 -10 -111 -5 0 -181 0 -393 0 l-385 0
-20 32 c-25 42 -26 113 -1 153 10 17 57 59 104 93 117 85 408 252 427 246 8
-4 48 -10 88 -15z m-1568 -70 c0 -58 1 -60 23 -53 27 10 57 10 80 0 15 -7 17
-2 17 53 l0 61 115 0 115 0 -2 -251 -3 -251 -110 0 -110 0 -3 61 -3 61 -59 0
-59 0 -3 -61 -3 -61 -105 0 -105 0 -3 251 -2 251 110 0 110 0 0 -61z m110 10
c0 -45 -2 -50 -17 -44 -23 10 -33 10 -60 1 -22 -7 -23 -5 -23 43 l0 51 50 0
50 0 0 -51z m2748 -76 l-3 -48 -247 -3 -248 -2 0 50 0 50 251 0 250 0 -3 -47z
m-1897 -147 c-13 -13 -29 -41 -36 -63 -11 -33 -17 -38 -47 -41 -56 -4 -62 7
-38 71 l21 57 61 0 61 0 -22 -24z m1897 -123 l-3 -108 -247 -3 -248 -2 0 110
0 110 250 0 251 0 -3 -107z m-2748 -48 l0 -55 -50 0 -50 0 0 55 0 55 50 0 50
0 0 -55z m1749 3 c18 -14 50 -51 51 -58 0 -3 -31 -4 -70 -2 l-70 4 0 49 0 49
37 -15 c20 -9 44 -21 52 -27z"/>
<path d="M3365 844 c-15 -15 -15 -19 -1 -32 17 -17 46 -10 46 11 0 8 -6 20
-14 26 -11 9 -18 8 -31 -5z"/>
<path d="M3480 845 c-16 -19 -5 -47 17 -43 22 4 29 43 9 51 -8 3 -20 -1 -26
-8z"/>
<path d="M3244 835 c-4 -9 -2 -21 4 -27 16 -16 47 -5 47 17 0 26 -42 34 -51
10z"/>
<path d="M3584 835 c-4 -9 -2 -21 4 -27 16 -16 47 -5 47 17 0 26 -42 34 -51
10z"/>
<path d="M3365 294 c-15 -15 -15 -19 -1 -32 17 -17 46 -10 46 11 0 8 -6 20
-14 26 -11 9 -18 8 -31 -5z"/>
<path d="M3480 295 c-16 -19 -5 -47 17 -43 22 4 29 43 9 51 -8 3 -20 -1 -26
-8z"/>
<path d="M3244 285 c-4 -9 -2 -21 4 -27 16 -16 47 -5 47 17 0 26 -42 34 -51
10z"/>
<path d="M3584 285 c-4 -9 -2 -21 4 -27 16 -16 47 -5 47 17 0 26 -42 34 -51
10z"/>
<path d="M1123 2186 c-127 -34 -235 -65 -239 -69 -13 -12 119 -497 134 -497
13 0 264 63 301 76 8 2 11 7 8 10 -3 3 -73 -13 -157 -35 -107 -28 -152 -36
-155 -28 -12 33 -123 462 -120 465 7 8 451 122 464 120 9 -2 34 -79 72 -228
65 -248 67 -255 75 -248 3 3 -18 93 -46 199 -74 280 -80 299 -93 298 -7 0
-116 -29 -244 -63z"/>
<path d="M1747 2022 c-22 -24 -21 -65 1 -85 40 -36 102 -9 102 45 0 51 -69 78
-103 40z"/>
<path d="M1100 2016 c0 -17 43 -174 50 -187 7 -11 25 1 80 56 38 38 70 72 70
75 0 3 -38 16 -85 28 -46 12 -91 25 -100 28 -8 4 -15 3 -15 0z m117 -43 l65
-16 -58 -58 c-32 -32 -61 -55 -65 -51 -6 6 -39 132 -39 148 0 3 7 3 17 0 9 -4
45 -14 80 -23z"/>
<path d="M575 1921 c-29 -12 -44 -33 -51 -69 -12 -61 78 -117 127 -79 21 16
39 51 39 76 0 47 -70 91 -115 72z"/>
<path d="M550 1548 c0 -2 -27 -95 -59 -207 -59 -201 -59 -202 -38 -212 32 -13
366 -109 382 -109 14 0 24 26 95 275 26 90 34 132 26 136 -6 4 -92 30 -191 58
-99 29 -188 54 -197 57 -10 3 -18 4 -18 2z m215 -73 c94 -26 173 -51 177 -55
6 -5 -95 -376 -105 -386 -3 -3 -379 105 -385 110 -2 2 5 32 15 67 18 61 20 63
82 97 34 19 66 31 70 26 21 -24 55 -98 46 -101 -26 -9 -116 -65 -112 -69 2 -3
49 19 103 49 55 30 102 53 106 51 3 -2 20 -29 38 -60 17 -31 34 -54 36 -51 8
8 -57 118 -73 124 -7 3 -24 -2 -38 -11 -34 -23 -39 -21 -65 27 -39 71 -36 69
-101 37 -32 -17 -61 -30 -63 -30 -3 0 1 19 9 43 8 23 23 75 35 115 17 59 25
73 38 69 9 -2 94 -26 187 -52z"/>
<path d="M808 1389 c-30 -17 -16 -69 18 -69 14 0 44 27 44 40 0 10 -29 40 -38
40 -4 0 -15 -5 -24 -11z"/>
<path d="M1242 1294 c-24 -17 -30 -62 -10 -82 37 -37 113 12 88 57 -9 17 -39
41 -52 41 -2 0 -14 -7 -26 -16z"/>
<path d="M1445 1145 c-77 -41 -141 -78 -143 -84 -2 -5 31 -75 73 -155 l76
-146 70 35 c38 20 69 40 69 46 0 5 -29 -7 -66 -27 -36 -20 -66 -35 -68 -33 -2
2 -35 66 -74 141 l-70 137 135 71 c75 38 139 70 142 70 4 0 15 -16 25 -36 9
-20 19 -34 22 -31 7 6 -34 87 -44 87 -4 -1 -70 -34 -147 -75z"/>
<path d="M1530 1065 c0 -13 55 -115 62 -115 5 0 -5 27 -22 60 -27 53 -40 71
-40 55z"/>
<path d="M1580 1062 c0 -17 30 -75 36 -69 3 3 -4 22 -15 44 -11 21 -20 32 -21
25z"/>
<path d="M1481 969 c16 -34 32 -59 35 -56 7 6 -48 117 -58 117 -5 0 6 -27 23
-61z"/>
<path d="M1500 1025 c0 -13 34 -65 42 -65 10 0 -18 56 -32 65 -5 3 -10 3 -10
0z"/>
<path d="M1430 985 c0 -13 32 -66 36 -62 6 6 -23 67 -31 67 -3 0 -5 -2 -5 -5z"/>
</g>
</svg>
