<?xml version="1.0" standalone="no"?>
<!DOCTYPE svg PUBLIC "-//W3C//DTD SVG 20010904//EN"
 "http://www.w3.org/TR/2001/REC-SVG-20010904/DTD/svg10.dtd">
<svg version="1.0" xmlns="http://www.w3.org/2000/svg"
 width="400.000000pt" height="372.000000pt" viewBox="0 0 400.000000 372.000000"
 preserveAspectRatio="xMidYMid meet">

<g transform="translate(0.000000,372.000000) scale(0.100000,-0.100000)" fill="#ddd" stroke="none">
<path d="M1465 3450 c-11 -4 -31 -20 -45 -35 l-25 -27 -3 -254 c-2 -172 0
-254 8 -254 7 0 10 82 10 249 0 235 1 250 20 274 12 15 38 31 58 37 24 6 287
10 735 10 746 0 737 1 782 -50 19 -21 20 -40 25 -404 l6 -381 2 378 c2 321 0
382 -13 407 -32 62 -2 60 -807 59 -403 0 -742 -4 -753 -9z"/>
<path d="M2110 3290 c0 -6 43 -10 110 -10 67 0 110 4 110 10 0 6 -43 10 -110
10 -67 0 -110 -4 -110 -10z"/>
<path d="M2626 3097 c-25 -25 -46 -101 -46 -169 l0 -41 -39 60 c-112 173 -183
81 -86 -112 19 -38 35 -70 35 -72 0 -2 -7 -3 -16 -3 -14 0 -16 -11 -12 -72 4
-66 14 -98 56 -180 2 -5 -42 -8 -97 -8 l-101 0 0 -100 0 -100 435 0 435 0 0
100 0 100 -180 0 c-99 0 -180 2 -180 4 0 2 12 28 27 57 34 69 46 199 18 199
-12 0 -15 5 -10 18 37 86 29 125 -23 106 l-28 -11 1 76 c0 71 -1 76 -22 79
-18 3 -30 -8 -55 -49 l-33 -53 -2 55 c-4 86 -13 118 -33 129 -16 9 -25 6 -44
-13z m48 -13 c12 -33 18 -154 11 -238 l-7 -86 -28 0 c-24 0 -30 6 -40 36 -18
52 -9 230 13 272 19 34 41 42 51 16z m-143 -151 c20 -32 69 -149 69 -165 0 -4
-20 -8 -44 -8 l-44 0 -36 70 c-37 69 -55 152 -42 186 6 15 11 13 42 -17 19
-19 44 -48 55 -66z m275 19 c-4 -20 -16 -72 -29 -114 -21 -73 -24 -78 -49 -78
-27 0 -28 2 -28 55 0 59 32 137 73 183 18 20 22 21 30 6 5 -8 6 -32 3 -52z
m64 -102 c0 -10 -8 -35 -17 -55 -14 -29 -22 -35 -49 -35 -33 0 -33 0 -22 33
18 58 88 103 88 57z m4 -126 c4 -9 4 -25 1 -34 -6 -18 -15 -19 -120 -19 -14 0
-32 0 -40 0 -8 0 -26 0 -40 0 -14 0 -32 0 -40 0 -8 0 -26 0 -40 0 -14 0 -33 0
-42 0 -10 0 -33 0 -50 0 -31 0 -33 3 -33 35 l0 34 199 0 c175 0 200 -2 205
-16z m-79 -75 c6 0 19 2 30 5 33 10 47 -6 35 -38 -8 -23 -13 -26 -25 -16 -10
8 -19 9 -34 0 -14 -7 -27 -8 -38 -1 -11 6 -24 6 -35 0 -12 -6 -24 -6 -35 0
-11 6 -24 6 -35 0 -12 -6 -25 -6 -38 1 -14 8 -25 7 -39 -2 -15 -9 -23 -9 -36
2 -12 10 -19 10 -27 2 -7 -7 -15 -12 -19 -12 -9 0 -21 48 -15 59 4 5 235 6
311 0z m-247 -71 c10 -10 17 -10 32 0 15 9 26 10 41 2 15 -8 24 -8 34 0 10 8
19 8 34 0 14 -7 27 -8 38 -1 11 6 24 6 35 0 12 -6 25 -6 38 1 41 22 53 -11 19
-54 -20 -26 -22 -26 -147 -26 l-127 0 -22 34 c-16 25 -19 36 -10 45 14 14 20
14 35 -1z"/>
<path d="M1037 3080 c-21 -17 -27 -30 -27 -59 0 -36 -6 -43 -86 -109 l-85 -71
-32 19 c-45 28 -106 26 -151 -5 l-38 -25 -74 46 c-67 42 -74 49 -74 78 0 43
-28 68 -71 64 -68 -7 -90 -88 -33 -125 22 -14 31 -15 60 -4 33 12 39 11 87
-19 97 -58 99 -61 86 -98 -9 -27 -8 -41 5 -76 9 -24 25 -51 36 -61 18 -17 18
-20 -38 -131 -52 -104 -59 -114 -84 -114 -35 0 -68 -32 -68 -65 0 -30 41 -75
68 -75 11 0 31 9 46 21 28 22 35 65 15 97 -9 15 -1 38 44 129 l56 110 48 -4
c40 -4 55 0 85 21 l38 25 65 -45 c57 -40 65 -49 65 -78 0 -54 52 -86 100 -61
80 41 22 159 -61 125 -24 -10 -34 -7 -92 32 -59 39 -65 46 -59 68 10 37 6 98
-8 116 -7 8 -11 16 -9 17 2 2 43 36 90 75 80 66 89 71 113 62 20 -7 34 -6 55
5 44 22 54 67 24 103 -27 32 -64 37 -96 12z"/>
<path d="M1605 2918 c-70 -25 -122 -86 -139 -164 -4 -17 -2 -61 4 -97 14 -75
1 -111 -51 -149 -34 -25 -63 -73 -54 -88 3 -5 -26 -25 -64 -45 -99 -49 -106
-63 -105 -205 1 -120 17 -271 39 -377 l13 -63 -45 0 c-88 0 -129 -81 -84 -168
21 -41 100 -120 173 -175 l48 -36 -58 0 c-50 0 -60 -3 -80 -27 -18 -20 -22
-35 -18 -56 l6 -28 -61 0 -60 0 3 -103 3 -102 720 0 720 0 0 100 0 100 -96 3
-96 3 24 46 c12 26 23 57 23 70 0 33 -36 100 -60 113 -17 9 -18 13 -7 24 7 8
26 14 42 14 31 0 65 32 65 61 0 9 -6 26 -14 36 -13 18 -9 29 41 113 31 51 53
95 50 99 -4 3 -70 -11 -147 -32 l-141 -37 -26 23 c-14 13 -46 51 -72 84 -38
48 -52 78 -70 145 -40 151 -101 327 -121 353 -19 24 -69 52 -134 77 l-28 10
26 21 c15 12 39 44 54 72 23 46 27 64 28 157 1 58 5 114 9 124 13 29 -15 68
-65 94 -49 24 -140 29 -195 10z m176 -150 c14 0 32 2 40 4 11 2 15 -14 17 -76
3 -93 -15 -157 -59 -205 -29 -32 -33 -33 -86 -28 l-55 6 7 -27 c3 -14 15 -37
25 -52 20 -28 15 -42 -30 -73 -42 -29 -66 -23 -74 21 -11 66 -7 90 24 139 40
63 38 87 -10 139 -22 24 -40 51 -40 59 0 23 28 30 56 14 34 -18 60 -1 57 37
-5 51 2 57 55 48 26 -4 59 -7 73 -6z m54 -383 c35 -17 58 -36 72 -62 19 -33
92 -259 123 -380 6 -26 31 -67 63 -104 88 -103 86 -95 26 -112 l-52 -16 -74
57 c-40 31 -75 63 -77 72 -2 8 -12 58 -21 110 -26 143 -34 140 -35 -9 0 -117
3 -146 27 -223 14 -48 30 -88 35 -88 11 0 12 -7 -22 100 -21 68 -29 113 -29
160 l2 65 15 -69 c16 -70 31 -88 136 -161 18 -13 19 -16 4 -27 -9 -7 -51 -68
-93 -135 -43 -68 -81 -123 -84 -123 -3 0 -55 13 -116 28 l-110 28 99 34 100
33 22 -29 c13 -15 26 -25 30 -21 15 15 -57 75 -98 81 -33 6 -39 10 -36 29 3
19 8 22 43 19 25 -2 57 -14 84 -33 23 -16 47 -29 53 -27 21 7 -83 69 -132 78
-31 6 -118 44 -216 96 l-164 85 0 100 c0 59 -4 99 -10 99 -11 0 -13 -68 -4
-156 l6 -60 164 -83 c90 -46 164 -88 164 -95 -1 -37 -14 -39 -136 -21 -155 23
-324 88 -335 128 -37 140 -58 526 -30 560 15 19 141 81 148 73 3 -3 -6 -19
-21 -36 -44 -53 -29 -139 29 -170 36 -19 103 -15 135 8 14 10 33 34 43 54 13
26 27 38 57 47 44 13 75 47 91 101 11 36 13 38 43 29 17 -5 54 -20 81 -34z
m625 -591 c0 -3 -21 -41 -46 -83 -42 -69 -50 -78 -77 -78 -36 0 -57 -25 -57
-67 l0 -31 -197 -48 c-108 -26 -198 -46 -199 -44 -2 2 31 58 73 124 l77 120
180 47 c100 26 192 51 206 56 31 11 40 12 40 4z m-1177 -93 c28 -11 108 -42
176 -70 68 -28 147 -58 177 -68 30 -9 54 -20 54 -24 0 -4 -23 -13 -51 -20 -97
-25 -78 -64 47 -94 l89 -21 -122 -41 c-98 -33 -123 -38 -127 -27 -10 26 -56
36 -108 24 l-47 -12 -63 48 c-136 103 -189 167 -190 234 -1 82 61 109 165 71z
m1091 -97 c30 -29 9 -84 -31 -84 -21 0 -53 29 -53 48 0 22 30 52 51 52 10 0
25 -7 33 -16z m-644 -18 c65 -13 65 -13 35 -25 -26 -11 -40 -10 -112 14 -46
14 -83 29 -83 32 0 6 66 -3 160 -21z m565 -76 c-3 -5 -18 -10 -33 -9 -24 0
-25 1 -7 9 28 12 47 12 40 0z m-26 -35 c16 -8 41 -29 56 -47 23 -27 26 -39 23
-79 -3 -26 -15 -60 -27 -78 l-22 -31 -375 0 -374 0 0 34 c0 23 6 36 18 41 186
72 547 173 625 174 26 1 61 -6 76 -14z m-541 -22 c59 -15 97 -29 84 -31 -29
-4 -212 38 -212 49 0 13 10 12 128 -18z m-250 -148 c38 -6 42 -9 42 -36 l0
-30 -92 3 c-91 3 -93 3 -93 28 0 29 38 52 75 46 14 -3 44 -8 68 -11z"/>
<path d="M3034 2075 c0 -71 1 -99 3 -62 2 37 2 96 0 130 -2 34 -3 4 -3 -68z"/>
<path d="M566 2067 c-30 -30 -32 -60 -11 -131 20 -67 19 -125 -5 -181 -27 -63
-25 -101 9 -176 40 -88 54 -162 42 -224 -9 -50 -7 -65 7 -51 4 4 7 49 7 99 0
86 -3 98 -39 177 -43 92 -43 85 0 204 15 42 16 56 4 110 -30 143 -24 176 30
176 42 0 59 -9 75 -41 24 -46 18 -90 -25 -175 -22 -43 -40 -89 -40 -100 0 -12
11 -47 25 -77 38 -82 41 -137 15 -257 -17 -76 -21 -121 -17 -167 10 -105 27
-111 20 -7 -4 71 -2 108 13 165 26 106 24 181 -9 253 -35 76 -34 102 7 184 42
86 49 114 36 161 -12 47 -37 70 -83 78 -29 4 -40 1 -61 -20z"/>
<path d="M198 1929 c-21 -6 -38 -15 -38 -21 0 -5 9 -6 23 -1 12 4 53 8 90 8
65 0 70 -2 98 -33 34 -38 42 -100 12 -87 -46 20 -71 17 -88 -8 -34 -52 33
-101 79 -58 12 11 26 21 30 21 4 0 15 -19 26 -42 12 -28 19 -36 19 -23 1 11
-6 34 -15 50 -9 17 -18 51 -19 76 -5 81 -44 117 -135 124 -25 2 -62 -1 -82 -6z
m180 -151 c9 -9 8 -16 -5 -30 -32 -35 -85 -15 -69 27 6 18 57 20 74 3z"/>
<path d="M902 1915 c-55 -24 -98 -63 -124 -112 -29 -54 -45 -138 -28 -148 6
-4 10 6 10 26 0 89 63 181 150 218 27 12 50 24 50 26 0 9 -24 4 -58 -10z"/>
<path d="M2895 1840 c-32 -12 -83 -38 -113 -58 -54 -36 -132 -122 -132 -147 0
-7 18 -36 40 -64 140 -176 403 -213 598 -84 51 34 132 123 132 145 0 21 -67
101 -111 134 -88 64 -152 87 -258 91 -79 3 -107 0 -156 -17z m270 -17 c27 -8
68 -26 91 -39 50 -30 144 -127 144 -149 0 -9 -26 -43 -57 -76 -155 -162 -394
-180 -575 -42 -60 46 -102 105 -94 131 11 33 123 132 180 158 94 43 206 49
311 17z"/>
<path d="M2981 1753 c-74 -39 -101 -121 -59 -183 51 -77 142 -88 204 -26 43
43 52 93 28 142 -36 72 -110 100 -173 67z m137 -62 c21 -13 11 -55 -14 -59
-30 -4 -48 21 -34 47 11 22 27 26 48 12z"/>
<path d="M3533 1820 c-34 -58 -27 -73 7 -18 32 51 35 58 23 58 -5 0 -18 -18
-30 -40z"/>
<path d="M900 1752 c-26 -26 -60 -112 -60 -152 0 -49 -35 -139 -76 -197 -73
-102 -91 -166 -60 -209 13 -17 14 -14 10 36 -5 50 -2 60 30 110 77 121 95 156
101 194 27 167 56 226 113 226 99 0 66 -133 -74 -296 -125 -145 -139 -169
-139 -238 0 -38 4 -61 12 -63 10 -4 10 3 2 25 -7 21 -7 42 0 70 12 44 21 56
133 189 91 108 138 195 138 253 0 78 -74 108 -130 52z"/>
<path d="M3618 1633 c18 -2 45 -2 60 0 15 2 0 4 -33 4 -33 0 -45 -2 -27 -4z"/>
<path d="M322 1619 c-16 -6 -22 -17 -22 -38 0 -46 18 -76 65 -110 66 -47 85
-85 85 -167 0 -73 16 -110 59 -140 31 -22 26 -5 -11 34 -31 31 -33 37 -30 99
3 83 -14 120 -83 179 -63 54 -86 97 -62 121 23 24 81 8 128 -34 70 -64 101
-151 80 -229 -7 -27 -7 -51 0 -77 10 -37 57 -102 67 -92 3 3 -4 15 -16 28 -34
36 -43 73 -36 147 9 88 1 127 -37 183 -46 71 -134 115 -187 96z"/>
<path d="M3510 1494 c0 -13 44 -84 52 -84 10 0 -27 76 -42 85 -5 3 -10 3 -10
-1z"/>
<path d="M3032 787 c-2 -557 -2 -551 -62 -582 -25 -13 -126 -15 -761 -15
l-731 0 -34 34 -34 34 0 291 c0 187 -4 291 -10 291 -6 0 -10 -102 -10 -285 0
-311 2 -324 57 -361 27 -18 60 -19 758 -22 681 -2 732 -1 764 15 75 39 71 7
68 588 l-2 520 -3 -508z"/>
<path d="M440 1095 c0 -28 5 -47 14 -52 12 -7 10 -68 -15 -428 -16 -231 -29
-426 -29 -432 0 -10 53 -13 230 -13 177 0 230 3 230 13 0 21 -49 739 -54 800
-5 46 -3 57 9 57 11 0 15 12 15 50 l0 50 -200 0 -200 0 0 -45z m380 0 l0 -35
-180 0 -180 0 0 35 0 35 180 0 180 0 0 -35z m-18 -130 c3 -72 2 -74 -18 -69
-12 3 -25 1 -28 -5 -5 -7 -14 -7 -31 1 -18 8 -28 8 -38 0 -10 -9 -16 -9 -25 0
-8 8 -18 9 -36 1 -17 -8 -27 -8 -35 0 -7 7 -17 7 -35 -1 -17 -8 -27 -8 -32 -1
-3 6 -16 8 -28 5 -20 -5 -21 -3 -18 69 l4 75 158 0 158 0 4 -75z m1 -95 c2 -3
8 -51 12 -107 l7 -103 -182 0 -182 0 8 103 c3 56 10 104 15 107 10 7 316 7
322 0z m27 -349 c0 -15 3 -50 7 -76 6 -46 5 -47 -15 -36 -16 8 -28 9 -42 1
-14 -8 -26 -8 -40 0 -14 8 -26 8 -40 0 -14 -8 -26 -8 -40 0 -14 8 -26 8 -40 0
-14 -8 -26 -8 -40 0 -14 8 -26 8 -40 0 -14 -8 -26 -8 -40 0 -14 8 -26 7 -41
-1 -21 -11 -22 -10 -16 27 4 22 7 56 7 77 l0 37 190 0 190 0 0 -29z m-329
-131 c13 -8 25 -7 39 0 14 8 26 8 40 0 14 -8 26 -8 40 0 14 7 26 8 39 0 14 -7
27 -7 45 1 19 9 29 9 40 0 11 -9 20 -10 36 -1 40 21 57 5 64 -62 3 -33 6 -81
6 -104 l0 -44 -211 0 -212 0 7 97 c8 118 20 138 67 113z"/>
<path d="M514 745 c-4 -9 -2 -21 4 -27 16 -16 47 -5 47 17 0 26 -42 34 -51 10z"/>
<path d="M614 745 c-4 -9 -2 -21 4 -27 16 -16 47 -5 47 17 0 26 -42 34 -51 10z"/>
<path d="M714 745 c-4 -9 -2 -21 4 -27 16 -16 47 -5 47 17 0 26 -42 34 -51 10z"/>
<path d="M514 295 c-8 -21 2 -45 19 -45 8 0 20 7 27 15 10 12 10 18 0 30 -7 8
-19 15 -27 15 -7 0 -16 -7 -19 -15z"/>
<path d="M620 295 c-17 -20 -5 -45 20 -45 11 0 23 7 26 15 6 15 -11 45 -26 45
-4 0 -13 -7 -20 -15z"/>
<path d="M720 295 c-11 -13 -11 -19 3 -32 21 -21 49 -9 45 19 -4 28 -30 35
-48 13z"/>
<path d="M3345 905 c-33 -32 -31 -60 3 -95 30 -29 30 -34 16 -147 -4 -36 -9
-42 -34 -48 -88 -19 -136 -125 -95 -206 34 -66 134 -90 200 -49 36 22 65 73
65 114 0 27 -2 26 117 54 36 8 44 7 62 -11 28 -28 79 -27 103 2 53 66 -29 153
-95 101 -15 -12 -27 -30 -27 -40 0 -14 -11 -22 -37 -29 -108 -26 -128 -30
-131 -21 -9 24 -49 64 -77 76 -31 13 -32 14 -28 66 7 89 13 118 27 118 22 0
46 35 46 68 0 66 -69 94 -115 47z"/>
<path d="M2158 343 c34 -2 88 -2 120 0 31 2 3 3 -63 3 -66 0 -92 -1 -57 -3z"/>
</g>
</svg>
